<svg width="25" height="24" viewBox="0 0 25 24" fill="none" xmlns="http://www.w3.org/2000/svg">
<path d="M11.2546 4H7.05464C5.37448 4 4.5344 4 3.89267 4.32698C3.32818 4.6146 2.86924 5.07354 2.58162 5.63803C2.25464 6.27976 2.25464 7.11984 2.25464 8.8V17.2C2.25464 18.8802 2.25464 19.7202 2.58162 20.362C2.86924 20.9265 3.32818 21.3854 3.89267 21.673C4.5344 22 5.37448 22 7.05464 22H15.4546C17.1348 22 17.9749 22 18.6166 21.673C19.1811 21.3854 19.64 20.9265 19.9277 20.362C20.2546 19.7202 20.2546 18.8802 20.2546 17.2V13M8.25461 16H9.92916C10.4183 16 10.6629 16 10.8931 15.9447C11.0972 15.8957 11.2923 15.8149 11.4712 15.7053C11.673 15.5816 11.846 15.4086 12.1919 15.0627L21.7546 5.5C22.5831 4.67157 22.5831 3.32843 21.7546 2.5C20.9262 1.67157 19.5831 1.67157 18.7546 2.5L9.19187 12.0627C8.84597 12.4086 8.67302 12.5816 8.54933 12.7834C8.43967 12.9624 8.35887 13.1575 8.30987 13.3615C8.25461 13.5917 8.25461 13.8363 8.25461 14.3255V16Z" stroke="#A8A8A8" stroke-linecap="round" stroke-linejoin="round"/>
</svg>
