<svg width="38" height="38" viewBox="0 0 38 38" fill="none" xmlns="http://www.w3.org/2000/svg">
<path d="M8.41743 30.7775C9.38061 28.5083 11.6294 26.9167 14.25 26.9167H23.75C26.3705 26.9167 28.6193 28.5083 29.5825 30.7775M25.3333 15.0417C25.3333 18.5395 22.4978 21.375 19 21.375C15.5022 21.375 12.6666 18.5395 12.6666 15.0417C12.6666 11.5439 15.5022 8.70835 19 8.70835C22.4978 8.70835 25.3333 11.5439 25.3333 15.0417ZM34.8333 19C34.8333 27.7445 27.7445 34.8334 19 34.8334C10.2555 34.8334 3.16663 27.7445 3.16663 19C3.16663 10.2555 10.2555 3.16669 19 3.16669C27.7445 3.16669 34.8333 10.2555 34.8333 19Z" stroke="black" stroke-width="2" stroke-linecap="round" stroke-linejoin="round"/>
</svg>
